<svg width="146" height="26" viewBox="0 0 146 26" fill="none" xmlns="http://www.w3.org/2000/svg">
<g clip-path="url(#clip0_182_383)">
<path d="M7.55336 1.98044C7.6413 2.06853 7.62948 2.19305 7.64445 2.3133C7.73758 3.03089 7.8401 3.72773 8.0603 4.41794C8.08065 4.48243 8.08065 4.48243 8.10142 4.54822C8.92447 7.10028 10.8002 9.32048 12.8763 10.9687C12.9371 11.0189 12.9978 11.0692 13.0585 11.1197C13.5564 11.5326 14.0705 11.9174 14.5999 12.289C14.639 12.3165 14.6782 12.344 14.7186 12.3724C15.9091 13.2051 17.1502 13.9509 18.421 14.6535C18.4525 14.671 18.4841 14.6884 18.5166 14.7064C18.847 14.889 19.178 15.0687 19.5172 15.2343C19.5199 15.1983 19.5225 15.1623 19.5252 15.1252C19.5997 14.4241 19.7924 13.6241 20.1256 13C20.339 13.1132 20.552 13.227 20.7648 13.3413C20.846 13.3848 20.9273 13.4281 21.0086 13.4714C22.1938 14.1016 23.3248 14.8073 24.4409 15.5517C24.4819 15.579 24.5229 15.6063 24.5651 15.6344C25.8231 16.4735 27.0309 17.3674 28.1395 18.3983C28.2855 18.5334 28.4337 18.666 28.582 18.7986C28.8066 19.0033 29.0055 19.2162 29.1999 19.4492C29.242 19.4965 29.2842 19.5438 29.3276 19.5926C29.9089 20.2499 30.67 21.2248 30.67 22.1406C30.0001 22.3482 29.3396 22.5163 28.6422 22.5976C28.6017 22.6024 28.5612 22.6072 28.5194 22.6121C28.0984 22.6563 27.6774 22.6608 27.2545 22.6611C27.1964 22.6612 27.1964 22.6612 27.1372 22.6612C24.0552 22.6569 21.0086 21.7312 18.1992 20.5156C18.1507 20.4947 18.1022 20.4738 18.0522 20.4522C17.761 20.3257 17.4726 20.1938 17.1853 20.0586C17.137 20.0359 17.0886 20.0132 17.0388 19.9898C15.838 19.4246 14.6742 18.8107 13.5353 18.1289C13.4859 18.0994 13.4364 18.0699 13.3855 18.0396C12.375 17.4358 11.3971 16.7872 10.4429 16.0976C10.4041 16.0696 10.3653 16.0416 10.3253 16.0128C9.37914 15.3277 8.47676 14.5892 7.60405 13.8125C7.56817 13.7807 7.5323 13.7488 7.49533 13.7161C7.36179 13.5967 7.2293 13.4763 7.09711 13.3554C7.06727 13.3282 7.03744 13.3009 7.00671 13.2729C6.50566 12.8136 6.02996 12.3383 5.57627 11.832C5.54825 11.8009 5.52022 11.7697 5.49134 11.7376C5.15264 11.3593 4.83461 10.9705 4.53433 10.5609C4.38944 10.3635 4.23998 10.1723 4.08342 9.98407C2.89109 8.54283 2.05251 6.72236 2.17974 4.82419C2.26463 4.08419 2.63796 3.43091 3.20393 2.95243C4.41711 2.043 6.08543 1.87982 7.55336 1.98044Z" fill="#040404"/>
<path d="M130.031 0.507812C131.269 0.507812 132.507 0.507812 133.783 0.507812C133.799 3.30637 133.816 6.10492 133.833 8.98828C133.984 8.75367 134.134 8.51906 134.29 8.27734C135.226 7.11845 136.578 6.57985 138.033 6.42065C139.76 6.25816 141.488 6.61004 142.857 7.71875C143.031 7.86627 143.198 8.01908 143.364 8.17578C143.403 8.21119 143.441 8.24661 143.481 8.2831C143.798 8.58437 144.045 8.92371 144.276 9.29297C144.296 9.32381 144.315 9.35465 144.335 9.38642C145.206 10.799 145.504 12.4584 145.506 14.0981C145.506 14.1373 145.506 14.1765 145.506 14.2169C145.503 16.4451 144.909 18.4794 143.415 20.1602C143.384 20.1941 143.354 20.228 143.323 20.2629C142.289 21.3582 140.737 21.9881 139.245 22.0454C139.049 22.0496 138.852 22.0516 138.656 22.0518C138.621 22.0518 138.586 22.0518 138.55 22.0519C137.996 22.051 137.464 22.0236 136.926 21.8867C136.892 21.8783 136.858 21.8698 136.823 21.8611C136.11 21.677 135.395 21.3729 134.847 20.8711C134.803 20.831 134.758 20.791 134.712 20.7497C134.327 20.3854 134.02 19.9759 133.783 19.5C133.766 20.2373 133.749 20.9747 133.732 21.7344C132.511 21.7344 131.289 21.7344 130.031 21.7344C130.031 14.7296 130.031 7.72484 130.031 0.507812ZM134.768 10.7597C133.77 12.0281 133.601 13.6987 133.783 15.2573C133.895 16.0937 134.164 16.9067 134.695 17.5703C134.728 17.6125 134.762 17.6548 134.796 17.6983C135.403 18.4223 136.242 18.8427 137.179 18.9414C138.262 19.0182 139.267 18.8425 140.119 18.1289C141.108 17.2547 141.495 16.022 141.583 14.736C141.666 13.28 141.44 11.7782 140.449 10.6482C139.79 9.94358 138.983 9.51763 138.007 9.47903C136.729 9.45954 135.64 9.77792 134.768 10.7597Z" fill="#040404"/>
<path d="M68.769 8.19328C68.9494 8.35295 69.1247 8.51747 69.2992 8.68359C69.3314 8.71252 69.3635 8.74145 69.3966 8.77126C70.7289 10.0105 71.2994 11.954 71.3854 13.717C71.4537 15.8985 70.8688 18.0048 69.3648 19.6307C69.3264 19.6714 69.288 19.712 69.2485 19.7539C69.2107 19.7951 69.1728 19.8362 69.1339 19.8787C68.1724 20.8896 66.9028 21.498 65.5637 21.8264C65.5234 21.8363 65.4832 21.8462 65.4417 21.8564C64.7524 22.0144 64.0631 22.0585 63.3585 22.0549C63.3199 22.0548 63.2813 22.0547 63.2415 22.0546C60.9972 22.0456 58.9459 21.2958 57.3454 19.6808C56.2722 18.5666 55.613 17.0678 55.4089 15.5391C55.3951 15.442 55.3951 15.442 55.381 15.3431C55.2741 14.3396 55.2816 13.2219 55.5103 12.2383C55.5196 12.1967 55.5288 12.1552 55.5384 12.1124C55.7745 11.0884 56.2137 10.1091 56.8791 9.29296C56.9032 9.26295 56.9273 9.23293 56.9522 9.20201C58.2602 7.58579 60.1857 6.65181 62.2398 6.43448C64.522 6.22659 66.9933 6.64109 68.769 8.19328ZM60.2439 10.8136C59.3088 12.0004 59.0899 13.5614 59.2617 15.0312C59.4412 16.3466 59.9853 17.5287 61.055 18.3511C61.9634 18.9737 63.0565 19.1766 64.1347 18.9827C64.9336 18.8257 65.5801 18.4416 66.1562 17.875C66.1911 17.8412 66.2261 17.8074 66.2621 17.7726C67.1762 16.8225 67.4571 15.4573 67.4457 14.1807C67.4454 14.1244 67.4454 14.1244 67.4452 14.0671C67.4364 12.7329 67.1148 11.5276 66.1813 10.5325C65.3296 9.70875 64.3632 9.41744 63.2023 9.42409C62.0219 9.45118 61.0277 9.93268 60.2439 10.8136Z" fill="#040404"/>
<path d="M93.2417 7.4472C94.0389 8.13879 94.6124 9.01654 94.8492 10.0547C94.8619 10.1103 94.8619 10.1103 94.8749 10.167C94.9787 10.6918 94.9641 11.217 94.9621 11.7495C94.9621 11.8586 94.9621 11.9678 94.9622 12.0769C94.9622 12.3717 94.9616 12.6665 94.9609 12.9613C94.9603 13.2699 94.9602 13.5786 94.9601 13.8872C94.9598 14.471 94.9589 15.0547 94.9579 15.6385C94.9568 16.3034 94.9562 16.9683 94.9557 17.6331C94.9547 19.0002 94.9528 20.3673 94.9506 21.7344C93.7127 21.7344 92.4747 21.7344 91.1992 21.7344C91.1981 21.2904 91.1981 21.2904 91.197 20.8375C91.1944 19.8585 91.1911 18.8795 91.1873 17.9005C91.185 17.3071 91.183 16.7137 91.1817 16.1202C91.1805 15.6028 91.1788 15.0853 91.1765 14.5678C91.1753 14.294 91.1743 14.0202 91.174 13.7465C91.1737 13.4882 91.1727 13.23 91.1711 12.9718C91.1707 12.8776 91.1705 12.7833 91.1706 12.689C91.1712 11.7718 91.1052 10.8452 90.4364 10.1432C89.747 9.5271 88.8681 9.49745 87.9913 9.53752C87.6982 9.55744 87.4245 9.61104 87.1437 9.69923C87.0883 9.71651 87.033 9.7338 86.9759 9.7516C86.5661 9.89474 86.2242 10.1015 85.8763 10.3594C85.8431 10.3833 85.8098 10.4072 85.7755 10.4318C85.0309 11.0131 84.6222 11.9832 84.4932 12.8985C84.447 13.3103 84.448 13.7224 84.4465 14.1362C84.446 14.2193 84.4455 14.3024 84.4449 14.3855C84.4436 14.6098 84.4425 14.8341 84.4415 15.0584C84.4404 15.2933 84.439 15.5282 84.4376 15.7631C84.4351 16.2073 84.4328 16.6515 84.4306 17.0957C84.4277 17.6964 84.4243 18.2971 84.421 18.8978C84.4157 19.8433 84.411 20.7889 84.4062 21.7344C83.1682 21.7344 81.9303 21.7344 80.6548 21.7344C80.6548 16.7741 80.6548 11.8138 80.6548 6.70314C81.876 6.70314 83.0972 6.70314 84.3555 6.70314C84.3722 7.54103 84.3889 8.37892 84.4062 9.2422C84.54 9.05787 84.6738 8.87353 84.8117 8.68361C84.9573 8.50793 85.1118 8.34203 85.268 8.1758C85.2953 8.14516 85.3226 8.11452 85.3508 8.08296C87.2229 6.06625 91.0919 5.72737 93.2417 7.4472Z" fill="#040404"/>
<path d="M112.643 6.70312C113.881 6.70312 115.119 6.70312 116.394 6.70312C116.395 7.00579 116.396 7.30846 116.397 7.6203C116.399 8.62077 116.403 9.62123 116.406 10.6217C116.409 11.2282 116.411 11.8347 116.412 12.4413C116.413 12.9701 116.415 13.4989 116.417 14.0278C116.418 14.3076 116.419 14.5875 116.42 14.8673C116.42 15.1311 116.421 15.3949 116.422 15.6587C116.423 15.7551 116.423 15.8516 116.423 15.948C116.423 16.775 116.47 17.6407 117.072 18.2781C117.549 18.7057 118.139 18.9139 118.777 18.9414C118.811 18.9434 118.846 18.9455 118.881 18.9476C119.89 18.9791 120.806 18.6435 121.567 17.9984C122.319 17.2864 122.799 16.2475 122.84 15.2074C122.84 15.1437 122.84 15.0799 122.841 15.0143C122.841 14.9785 122.841 14.9428 122.841 14.9059C122.842 14.787 122.843 14.6681 122.843 14.5492C122.843 14.4636 122.844 14.378 122.845 14.2924C122.846 14.0607 122.847 13.8289 122.848 13.5972C122.849 13.3548 122.85 13.1124 122.852 12.8699C122.854 12.4112 122.857 11.9524 122.859 11.4936C122.862 10.8734 122.865 10.2533 122.868 9.63314C122.874 8.65647 122.878 7.6798 122.883 6.70312C124.138 6.70312 125.393 6.70312 126.685 6.70312C126.685 11.6634 126.685 16.6237 126.685 21.7344C125.464 21.7344 124.243 21.7344 122.985 21.7344C122.968 20.8965 122.951 20.0586 122.934 19.1953C122.817 19.3629 122.7 19.5305 122.579 19.7031C121.598 20.961 120.289 21.7866 118.696 22.0115C117.286 22.1747 115.752 22.0392 114.577 21.1706C114.436 21.0573 114.299 20.9407 114.164 20.8203C114.128 20.7885 114.092 20.7567 114.055 20.7239C113.2 19.92 112.688 18.6789 112.638 17.512C112.637 17.3939 112.636 17.2759 112.637 17.1578C112.637 17.1128 112.637 17.0679 112.637 17.0216C112.637 16.872 112.637 16.7224 112.637 16.5727C112.637 16.4651 112.637 16.3575 112.637 16.2499C112.637 15.9583 112.638 15.6668 112.638 15.3752C112.638 15.0703 112.638 14.7654 112.638 14.4605C112.638 13.8834 112.639 13.3063 112.639 12.7292C112.64 12.072 112.64 11.4149 112.64 10.7577C112.641 9.40619 112.642 8.05466 112.643 6.70312Z" fill="#040404"/>
<path d="M108.993 7.92186C109.027 7.94922 109.062 7.97658 109.098 8.00477C109.792 8.56841 110.243 9.43786 110.412 10.3086C110.429 10.5097 110.446 10.7108 110.463 10.9179C109.325 10.9179 108.188 10.9179 107.016 10.9179C106.966 10.7504 106.915 10.5828 106.864 10.4101C106.634 9.86508 106.208 9.5688 105.672 9.35008C105.137 9.14824 104.601 9.1233 104.034 9.12474C103.97 9.12392 103.906 9.1231 103.84 9.12226C103.128 9.12189 102.463 9.23751 101.877 9.66111C101.612 9.93869 101.529 10.2094 101.515 10.591C101.53 10.9951 101.635 11.2348 101.927 11.5115C102.776 12.1963 104.041 12.3443 105.074 12.5715C106.933 12.9815 108.908 13.445 110.026 15.1475C110.408 15.7873 110.686 16.4601 110.716 17.2148C110.718 17.2598 110.72 17.3048 110.723 17.3511C110.748 18.4737 110.449 19.5236 109.667 20.348C109.628 20.3865 109.59 20.4251 109.55 20.4648C109.516 20.4997 109.482 20.5346 109.447 20.5706C107.96 21.9903 105.705 22.0908 103.774 22.0506C101.828 21.9997 99.9446 21.4295 98.5609 20.0161C97.8008 19.1585 97.5237 18.1835 97.3838 17.0625C98.5214 17.0625 99.659 17.0625 100.831 17.0625C100.915 17.3306 100.998 17.5987 101.084 17.875C101.464 18.5655 102.056 18.9279 102.795 19.1572C103.914 19.452 105.37 19.5218 106.425 18.9822C106.781 18.7706 107.068 18.4905 107.198 18.0868C107.279 17.6549 107.255 17.2335 107.016 16.8594C106.39 16.0935 105.183 15.9777 104.281 15.7707C102.888 15.4485 102.888 15.4485 102.214 15.2734C102.167 15.2614 102.121 15.2494 102.073 15.237C100.732 14.8838 99.307 14.2227 98.5747 12.9873C98.0093 11.9434 97.8731 10.7456 98.1949 9.59764C98.566 8.47013 99.3575 7.67265 100.386 7.12384C102.927 5.88573 106.802 6.00915 108.993 7.92186Z" fill="#040404"/>
<path d="M52.1943 7.96609C52.2346 8.00177 52.2749 8.03745 52.3165 8.0742C52.3636 8.11354 52.4107 8.15289 52.4592 8.19342C53.3111 8.93105 53.9252 9.89767 54.2714 10.9687C54.2896 11.0251 54.2896 11.0251 54.3082 11.0827C54.4001 11.3922 54.4152 11.6491 54.4456 11.9844C53.2579 11.9844 52.0701 11.9844 50.8463 11.9844C50.7459 11.7162 50.6456 11.4481 50.5422 11.1719C50.0103 10.307 49.3532 9.79467 48.3623 9.54686C47.3807 9.32288 46.2776 9.47691 45.422 10.0039C44.4007 10.704 43.9536 11.8103 43.7113 12.9794C43.4673 14.4757 43.6356 16.239 44.5095 17.5195C44.6787 17.7394 44.869 17.9353 45.0672 18.1289C45.0967 18.1595 45.1262 18.1902 45.1567 18.2217C45.5762 18.625 46.1811 18.8358 46.7401 18.9414C46.8248 18.9587 46.8248 18.9587 46.9112 18.9763C48.001 19.0704 49.036 18.8499 49.8942 18.137C50.2954 17.7591 50.5443 17.2993 50.7428 16.7897C50.7956 16.6562 50.7956 16.6562 50.897 16.4531C52.0681 16.4531 53.2391 16.4531 54.4456 16.4531C54.4097 16.8493 54.3687 17.1604 54.2428 17.5259C54.2273 17.5716 54.2117 17.6174 54.1956 17.6646C53.6556 19.1916 52.5567 20.4026 51.1505 21.1758C51.0937 21.2076 51.0369 21.2395 50.9784 21.2724C49.1512 22.2461 46.7983 22.2832 44.8432 21.7072C43.9078 21.4167 43.0711 20.9565 42.3297 20.3125C42.2876 20.2765 42.2456 20.2406 42.2023 20.2036C40.7014 18.8889 39.8647 17.0027 39.7076 15.0251C39.5732 12.9158 39.9991 10.7318 41.3966 9.08249C41.5027 8.96424 41.6115 8.84918 41.7213 8.73436C41.7652 8.68086 41.8086 8.62696 41.8512 8.57249C42.8442 7.4248 44.409 6.73938 45.8783 6.49998C45.9411 6.48964 46.0039 6.4793 46.0686 6.46864C48.1437 6.16117 50.5578 6.56768 52.1943 7.96609Z" fill="#040404"/>
<path d="M9.42925 2.08203C13.3739 2.53201 17.1841 4.08913 22.7776 7.02792C22.9032 7.10293 23.0294 7.17669 23.156 7.25002C23.7118 7.57441 24.2482 7.92647 24.7833 8.28369C24.8186 8.30723 24.8539 8.33077 24.8903 8.35502C25.5816 8.81673 26.2572 9.29722 26.9188 9.80078C26.9697 9.83921 27.0205 9.87763 27.0729 9.91722C27.6808 10.3804 28.2764 10.8616 28.8397 11.3786C28.9384 11.469 29.0386 11.5572 29.1399 11.6448C29.8003 12.2229 30.4676 12.8254 31.033 13.4987C31.1108 13.5909 31.1901 13.681 31.2706 13.7708C31.9104 14.4894 32.465 15.2674 32.9515 16.0977C32.97 16.1291 32.9884 16.1606 33.0075 16.193C33.5984 17.2123 34.0185 18.4404 33.7531 19.6238C33.5519 20.3046 33.1259 20.8654 32.5459 21.2773C32.4125 21.3488 32.277 21.4155 32.1404 21.4805C32.1358 21.4527 32.1313 21.4249 32.1266 21.3963C31.8168 19.5458 30.9645 18.0879 29.7054 16.7148C29.6129 16.6134 29.5235 16.51 29.4345 16.4055C29.1129 16.0362 28.7614 15.6907 28.3892 15.3728C28.2748 15.2741 28.1642 15.1718 28.0531 15.0693C27.7976 14.8384 27.5298 14.6268 27.258 14.4157C27.1337 14.3191 27.0106 14.2212 26.8885 14.1217C26.4052 13.7281 25.9068 13.3599 25.398 13C25.3281 12.9504 25.3281 12.9504 25.2568 12.8999C24.6875 12.497 24.1152 12.1046 23.5202 11.7411C23.4175 11.6776 23.3158 11.6127 23.2142 11.5474C22.0266 10.7843 20.8044 10.075 19.5681 9.39453C19.5216 9.36886 19.475 9.34319 19.427 9.31675C18.6656 8.89763 17.9001 8.48609 17.1348 8.07422C17.1299 8.10149 17.1249 8.12876 17.1199 8.15685C17.0478 8.53694 16.9527 8.9104 16.8553 9.28455C16.8272 9.39235 16.7994 9.50021 16.7715 9.60807C16.6359 10.1322 16.6359 10.1322 16.5772 10.3086C16.3237 10.2348 16.1143 10.1258 15.8896 9.99121C15.8526 9.96913 15.8155 9.94706 15.7773 9.92431C14.7114 9.28146 13.6784 8.56417 12.7485 7.73462C12.6808 7.67434 12.6125 7.61477 12.5442 7.5553C11.9682 7.0483 11.4126 6.50441 10.9501 5.89062C10.9301 5.86429 10.91 5.83796 10.8894 5.81083C10.141 4.81995 9.42245 3.57786 9.42826 2.30003C9.4284 2.25913 9.42854 2.21823 9.42869 2.17609C9.42887 2.14505 9.42906 2.11401 9.42925 2.08203Z" fill="#040404"/>
<path d="M1.72342 4.62109C1.77952 4.78968 1.76738 4.83189 1.72659 4.99878C1.35973 6.9042 2.28164 8.80775 3.31852 10.3429C3.6397 10.8083 3.99663 11.2466 4.35953 11.6797C4.39029 11.7168 4.39029 11.7168 4.42168 11.7547C4.79971 12.2102 5.19942 12.6372 5.61959 13.0539C5.71652 13.1501 5.81302 13.2466 5.90948 13.3433C6.21226 13.6457 6.51603 13.943 6.84356 14.2188C6.90027 14.2681 6.9569 14.3176 7.01347 14.3671C7.38985 14.6937 7.77343 15.0086 8.16776 15.3131C8.26834 15.3908 8.36864 15.4689 8.46895 15.547C10.4669 17.0961 12.6297 18.4216 14.8821 19.5639C15.0437 19.6461 15.2049 19.7291 15.366 19.8124C19.536 21.9545 24.8094 23.7711 30.7103 22.6336C31.4885 22.3689 32.2966 21.9987 32.9005 21.4297C32.934 21.4464 32.9674 21.4632 33.0019 21.4805C32.5816 21.9445 32.1492 22.3949 31.7069 22.8379C31.6043 22.9408 31.5021 23.044 31.4 23.1473C31.0372 23.5123 30.6717 23.8565 30.2644 24.1719C30.2352 24.1953 30.2059 24.2187 30.1758 24.2429C28.5781 25.5236 26.7635 25.6903 24.7836 25.4732C20.4193 24.9722 16.1608 23.5504 11.5994 20.9577C11.4524 20.8684 11.3047 20.7802 11.1569 20.6922C10.5309 20.3171 9.92371 19.921 9.32759 19.5C9.29555 19.4775 9.26352 19.455 9.23051 19.4318C8.29621 18.7752 7.38742 18.0816 6.5213 17.337C6.43706 17.2648 6.35234 17.1933 6.26751 17.1218C5.52733 16.4964 4.83875 15.8207 4.15359 15.136C4.12131 15.1038 4.08904 15.0716 4.05579 15.0384C3.72344 14.7066 3.39446 14.3756 3.09217 14.0156C3.04409 13.9606 2.9959 13.9056 2.94761 13.8508C1.72027 12.4414 0.270934 10.7335 0.340811 8.74667C0.464836 7.27357 1.06529 5.92792 1.72342 4.62109Z" fill="#040404"/>
<path d="M73.5068 6.70312C74.7448 6.70312 75.9828 6.70312 77.2582 6.70312C77.2582 11.6634 77.2582 16.6237 77.2582 21.7344C76.0203 21.7344 74.7823 21.7344 73.5068 21.7344C73.5068 16.7741 73.5068 11.8137 73.5068 6.70312Z" fill="#040404"/>
<path d="M73.355 0.152344C74.6933 0.152344 76.0316 0.152344 77.4105 0.152344C77.4105 1.50973 77.4105 2.86711 77.4105 4.26562C76.0722 4.26562 74.7339 4.26562 73.355 4.26562C73.355 2.90824 73.355 1.55086 73.355 0.152344Z" fill="#040404"/>
<path d="M33.1542 21.2266C33.1709 21.2601 33.1877 21.2936 33.2049 21.3281C33.1714 21.3114 33.138 21.2946 33.1035 21.2773C33.1202 21.2606 33.137 21.2438 33.1542 21.2266Z" fill="#040404"/>
</g>
<defs>
<clipPath id="clip0_182_383">
<rect width="146" height="26" fill="white"/>
</clipPath>
</defs>
</svg>
