<svg width="24" height="24" viewBox="0 0 24 24" fill="none" xmlns="http://www.w3.org/2000/svg">
<path d="M19.4824 5.00868C18.0848 4.35593 16.5961 3.87495 15.0279 3.6001C14.8347 3.94366 14.6074 4.41318 14.4597 4.7911C12.8006 4.53916 11.1529 4.53916 9.52791 4.7911C9.36883 4.41318 9.14155 3.94366 8.94837 3.6001C7.38017 3.87495 5.89154 4.35593 4.4938 5.00868C1.67561 9.2917 0.91424 13.4717 1.28924 17.583C3.16425 18.9915 4.97108 19.839 6.75518 20.4001C7.19836 19.7931 7.58473 19.1403 7.92563 18.4647C7.2779 18.2243 6.66427 17.915 6.08471 17.5601C6.24381 17.4455 6.39154 17.3196 6.53926 17.205C10.0961 18.8769 13.9484 18.8769 17.4597 17.205C17.6074 17.331 17.7552 17.4455 17.9143 17.5601C17.3348 17.915 16.7097 18.2127 16.0734 18.4647C16.4143 19.1403 16.8007 19.7931 17.2438 20.4001C19.028 19.839 20.8461 18.9915 22.7097 17.583C23.153 12.8075 21.9484 8.6733 19.5052 5.00868H19.4824ZM8.40291 15.0635C7.33472 15.0635 6.45971 14.0672 6.45971 12.8418C6.45971 11.6165 7.31199 10.6202 8.40291 10.6202C9.49382 10.6202 10.3575 11.6165 10.3461 12.8418C10.3461 14.0557 9.49382 15.0635 8.40291 15.0635ZM15.5734 15.0635C14.5052 15.0635 13.6302 14.0672 13.6302 12.8418C13.6302 11.6165 14.4825 10.6202 15.5734 10.6202C16.6642 10.6202 17.528 11.6165 17.5166 12.8418C17.5166 14.0557 16.6642 15.0635 15.5734 15.0635Z" fill="#D8E7FE"/>
</svg>
