<svg width="24" height="24" viewBox="0 0 24 24" fill="none" xmlns="http://www.w3.org/2000/svg">
<path d="M12.0012 1.2002C9.06808 1.2002 8.69998 1.21302 7.54797 1.26545C6.3982 1.3181 5.61339 1.50012 4.92669 1.7672C4.21635 2.04305 3.61379 2.41205 3.01349 3.01257C2.41274 3.61287 2.04372 4.21542 1.76698 4.92552C1.49922 5.61244 1.31697 6.39747 1.26522 7.54677C1.2137 8.69877 1.2002 9.0671 1.2002 12.0002C1.2002 14.9334 1.21325 15.3003 1.26545 16.4523C1.31832 17.602 1.50035 18.3868 1.76721 19.0735C2.04328 19.7839 2.41228 20.3864 3.01282 20.9868C3.61289 21.5875 4.21545 21.9573 4.92533 22.2332C5.61249 22.5003 6.39753 22.6824 7.54706 22.7349C8.69907 22.7874 9.06695 22.8002 11.9999 22.8002C14.9332 22.8002 15.3002 22.7874 16.4522 22.7349C17.6019 22.6824 18.3877 22.5003 19.0748 22.2332C19.785 21.9573 20.3866 21.5875 20.9866 20.9868C21.5875 20.3864 21.9565 19.7839 22.2332 19.0737C22.4986 18.3868 22.6809 17.6018 22.7349 16.4526C22.7868 15.3006 22.8002 14.9334 22.8002 12.0002C22.8002 9.0671 22.7868 8.699 22.7349 7.547C22.6809 6.39724 22.4986 5.61244 22.2332 4.92574C21.9565 4.21542 21.5875 3.61287 20.9866 3.01257C20.3859 2.41182 19.7852 2.04282 19.0742 1.7672C18.3856 1.50012 17.6004 1.3181 16.4506 1.26545C15.2986 1.21302 14.9319 1.2002 11.9978 1.2002H12.0012ZM11.0323 3.14644C11.3199 3.146 11.6408 3.14644 12.0012 3.14644C14.8849 3.14644 15.2266 3.1568 16.3653 3.20855C17.4183 3.2567 17.9899 3.43265 18.3705 3.58047C18.8746 3.77622 19.2339 4.01022 19.6117 4.38822C19.9897 4.76622 20.2237 5.12622 20.4199 5.63022C20.5677 6.01047 20.7439 6.58197 20.7919 7.63497C20.8436 8.77347 20.8549 9.11547 20.8549 11.9977C20.8549 14.88 20.8436 15.222 20.7919 16.3605C20.7436 17.4135 20.5677 17.985 20.4199 18.3652C20.2242 18.8692 19.9897 19.2282 19.6117 19.6059C19.2337 19.9839 18.8748 20.2179 18.3705 20.4136C17.9904 20.5621 17.4183 20.7376 16.3653 20.7858C15.2269 20.8375 14.8849 20.8488 12.0012 20.8488C9.11735 20.8488 8.77558 20.8375 7.63707 20.7858C6.58406 20.7372 6.01254 20.5612 5.63162 20.4134C5.12762 20.2177 4.7676 19.9837 4.3896 19.6057C4.0116 19.2277 3.77759 18.8685 3.58139 18.3643C3.43356 17.9841 3.25739 17.4126 3.20946 16.3596C3.15772 15.2211 3.14736 14.8791 3.14736 11.995C3.14736 9.11097 3.15772 8.77077 3.20946 7.63227C3.25762 6.57927 3.43356 6.00777 3.58139 5.62707C3.77715 5.12307 4.0116 4.76307 4.3896 4.38507C4.7676 4.00707 5.12762 3.77307 5.63162 3.57687C6.01232 3.42837 6.58406 3.25287 7.63707 3.2045C8.63337 3.1595 9.01948 3.146 11.0323 3.14375V3.14644ZM17.7662 4.9397C17.0508 4.9397 16.4702 5.51952 16.4702 6.23524C16.4702 6.95074 17.0508 7.53125 17.7662 7.53125C18.4818 7.53125 19.0622 6.95074 19.0622 6.23524C19.0622 5.51974 18.4818 4.9397 17.7662 4.9397ZM12.0012 6.45394C8.93825 6.45394 6.4549 8.93727 6.4549 12.0002C6.4549 15.0631 8.93825 17.5453 12.0012 17.5453C15.0642 17.5453 17.5466 15.0631 17.5466 12.0002C17.5466 8.93727 15.064 6.45394 12.0012 6.45394ZM12.0012 8.4002C13.9893 8.4002 15.6013 10.0119 15.6013 12.0002C15.6013 13.9882 13.9893 15.6002 12.0012 15.6002C10.0129 15.6002 8.40117 13.9882 8.40117 12.0002C8.40117 10.0119 10.0129 8.4002 12.0012 8.4002Z" fill="#D8E7FE"/>
</svg>
