<svg width="149" height="33" viewBox="0 0 149 33" fill="none" xmlns="http://www.w3.org/2000/svg">
<g clip-path="url(#clip0_178_161)">
<mask id="mask0_178_161" style="mask-type:luminance" maskUnits="userSpaceOnUse" x="0" y="0" width="149" height="33">
<path d="M149 0H0V33H149V0Z" fill="white"/>
</mask>
<g mask="url(#mask0_178_161)">
<path fill-rule="evenodd" clip-rule="evenodd" d="M5.44741 15.0382H13.6263C14.9312 15.0382 16.0367 14.1855 16.3957 12.9029L17.7646 8.00722C18.021 7.08984 17.8576 6.18721 17.2951 5.42465C16.7328 4.6629 15.9294 4.25335 14.9962 4.25335H14.272C12.967 4.25335 11.8616 5.10602 11.5027 6.38871L10.9475 8.37334C10.9427 8.39055 10.9387 8.40528 10.9347 8.42166C10.9291 8.44379 10.9227 8.46591 10.9155 8.48802L10.9147 8.49047C10.7281 9.08675 10.1817 9.51842 9.53607 9.51842C8.90161 9.51842 8.36248 9.1007 8.16703 8.51914C8.15421 8.48146 8.143 8.44297 8.13339 8.40447C8.12618 8.37417 8.11897 8.34795 8.11096 8.31764L6.38225 2.13521C6.02338 0.852524 4.9179 -0.000137329 3.61296 -0.000137329H2.88881C1.95476 -0.000137329 1.15129 0.409399 0.589739 1.17197C0.0273906 1.93454 -0.136826 2.83634 0.120316 3.75453L2.67892 12.9029C3.0378 14.1855 4.14328 15.0382 5.44741 15.0382Z" fill="#121926"/>
<path fill-rule="evenodd" clip-rule="evenodd" d="M5.44705 17.9622H13.626C14.9309 17.9622 16.0363 18.8141 16.3944 20.0968L17.7635 24.9925C18.0198 25.9098 17.8555 26.8124 17.294 27.575C16.7317 28.3375 15.9282 28.7462 14.9949 28.7462H14.2708C12.9659 28.7462 11.8604 27.8945 11.5015 26.6109L10.9464 24.6263C10.9416 24.6091 10.9376 24.5944 10.9328 24.5772C10.9272 24.555 10.9208 24.533 10.9135 24.5116L10.9127 24.5092C10.7261 23.9129 10.1798 23.4812 9.5341 23.4812C8.89967 23.4812 8.36054 23.899 8.16508 24.4805C8.15227 24.5182 8.14105 24.5567 8.13144 24.596C8.12423 24.6263 8.11702 24.6525 8.10901 24.6821L6.37951 30.8645C6.02063 32.1471 4.91515 32.9998 3.61102 32.9998H2.88685C1.95361 32.9998 1.14933 32.5903 0.587786 31.8286C0.0254378 31.0659 -0.13878 30.1634 0.118363 29.246L2.67697 20.0977C3.03585 18.8149 4.14212 17.9622 5.44705 17.9622Z" fill="#121926"/>
<path d="M28.8408 27.107V7.02412H33.0874V15.1987H40.6025V7.02412H44.8491V27.107H40.6025V18.8193H33.0874V27.107H28.8408ZM55.4317 27.4464C50.85 27.4464 47.8886 24.3067 47.8886 19.5264C47.8886 14.7461 50.85 11.6064 55.4037 11.6064C59.8458 11.6064 62.7234 14.7178 62.7234 19.8093V20.6578H52.2189C52.3027 23.0621 53.5599 24.2218 55.5154 24.2218C56.9123 24.2218 57.8901 23.6278 58.3093 22.3833L62.5278 22.6378C61.7176 25.6644 59.0356 27.4464 55.4317 27.4464ZM58.4489 18.0556C58.3371 15.8493 57.1359 14.7461 55.4037 14.7461C53.6437 14.7461 52.4424 15.9624 52.2189 18.0556H58.4489ZM69.4421 27.107C67.0115 27.107 65.5308 25.9473 65.5308 23.147V7.02412H69.7215V22.6944C69.7215 23.5996 70.1405 23.939 70.9228 23.939H71.9285V27.107H69.4421ZM74.6979 27.107V11.9458H78.8884V27.107H74.6979ZM74.614 10.079V6.68469H78.9443V10.079H74.614ZM89.2909 27.4464C84.6812 27.4464 81.6919 24.3067 81.6919 19.5264C81.6919 14.7461 84.6812 11.6064 89.2909 11.6064C93.258 11.6064 96.1635 13.8127 96.6105 17.5464L92.2802 17.7444C92.0009 15.8776 90.8833 14.8876 89.2909 14.8876C87.1956 14.8876 85.9943 16.5847 85.9943 19.5264C85.9943 22.4681 87.1956 24.1936 89.2909 24.1936C90.9113 24.1936 92.0567 23.2318 92.2802 21.167L96.6105 21.3367C96.1914 25.0704 93.3419 27.4464 89.2909 27.4464ZM105.852 27.4464C101.27 27.4464 98.2526 24.335 98.2526 19.5264C98.2526 14.7461 101.27 11.6064 105.852 11.6064C110.433 11.6064 113.451 14.7461 113.451 19.5264C113.451 24.335 110.433 27.4464 105.852 27.4464ZM105.852 24.1936C107.947 24.1936 109.12 22.4681 109.12 19.5264C109.12 16.5847 107.947 14.8593 105.852 14.8593C103.756 14.8593 102.555 16.5847 102.555 19.5264C102.555 22.4681 103.756 24.1936 105.852 24.1936ZM121.531 27.4464C117.76 27.4464 115.413 24.3916 115.413 19.5264C115.413 14.6895 117.816 11.6064 121.531 11.6064C123.683 11.6064 125.275 12.5398 126.057 14.0956V7.02412H130.249V27.107H126.225L126.141 24.8724C125.303 26.513 123.599 27.4464 121.531 27.4464ZM122.928 24.1936C124.94 24.1936 126.057 22.5813 126.057 19.5264C126.057 16.4433 124.94 14.8593 122.928 14.8593C120.973 14.8593 119.716 16.6413 119.716 19.5264C119.716 22.355 121.001 24.1936 122.928 24.1936ZM140.609 27.4464C136.027 27.4464 133.066 24.3067 133.066 19.5264C133.066 14.7461 136.027 11.6064 140.581 11.6064C145.023 11.6064 147.9 14.7178 147.9 19.8093V20.6578H137.396C137.48 23.0621 138.737 24.2218 140.693 24.2218C142.089 24.2218 143.067 23.6278 143.486 22.3833L147.705 22.6378C146.894 25.6644 144.212 27.4464 140.609 27.4464ZM143.626 18.0556C143.514 15.8493 142.312 14.7461 140.581 14.7461C138.821 14.7461 137.619 15.9624 137.396 18.0556H143.626Z" fill="#121926"/>
</g>
</g>
<defs>
<clipPath id="clip0_178_161">
<rect width="149" height="33" fill="white"/>
</clipPath>
</defs>
</svg>
