<svg width="149" height="33" viewBox="0 0 149 33" fill="none" xmlns="http://www.w3.org/2000/svg">
<g clip-path="url(#clip0_210_1336)">
<mask id="mask0_210_1336" style="mask-type:luminance" maskUnits="userSpaceOnUse" x="0" y="0" width="149" height="33">
<path d="M149 0H0V33H149V0Z" fill="white"/>
</mask>
<g mask="url(#mask0_210_1336)">
<path fill-rule="evenodd" clip-rule="evenodd" d="M5.44741 15.0383H13.6263C14.9312 15.0383 16.0367 14.1856 16.3957 12.903L17.7646 8.00736C18.021 7.08998 17.8576 6.18735 17.2951 5.42479C16.7328 4.66304 15.9294 4.25349 14.9962 4.25349H14.272C12.967 4.25349 11.8616 5.10616 11.5027 6.38885L10.9475 8.37348C10.9427 8.39069 10.9387 8.40542 10.9347 8.4218C10.9291 8.44392 10.9227 8.46604 10.9155 8.48815L10.9147 8.49061C10.7281 9.08689 10.1817 9.51856 9.53607 9.51856C8.90161 9.51856 8.36248 9.10083 8.16703 8.51928C8.15421 8.4816 8.143 8.44311 8.13339 8.40461C8.12618 8.3743 8.11897 8.34808 8.11096 8.31778L6.38225 2.13535C6.02338 0.852661 4.9179 0 3.61296 0H2.88881C1.95476 0 1.15129 0.409536 0.589739 1.1721C0.0273906 1.93467 -0.136826 2.83648 0.120316 3.75467L2.67892 12.903C3.0378 14.1856 4.14328 15.0383 5.44741 15.0383Z" fill="#FCFCFD"/>
<path fill-rule="evenodd" clip-rule="evenodd" d="M5.44705 17.9624H13.626C14.9309 17.9624 16.0363 18.8143 16.3944 20.097L17.7635 24.9927C18.0198 25.91 17.8555 26.8126 17.294 27.5752C16.7317 28.3377 15.9282 28.7464 14.9949 28.7464H14.2708C12.9659 28.7464 11.8604 27.8947 11.5015 26.6111L10.9464 24.6265C10.9416 24.6093 10.9376 24.5946 10.9328 24.5774C10.9272 24.5552 10.9208 24.5332 10.9135 24.5118L10.9127 24.5094C10.7261 23.9131 10.1798 23.4814 9.5341 23.4814C8.89967 23.4814 8.36054 23.8992 8.16508 24.4807C8.15227 24.5184 8.14105 24.5569 8.13144 24.5962C8.12423 24.6265 8.11702 24.6527 8.10901 24.6823L6.37951 30.8647C6.02063 32.1473 4.91515 33 3.61102 33H2.88685C1.95361 33 1.14933 32.5905 0.587786 31.8288C0.0254378 31.0661 -0.13878 30.1636 0.118363 29.2462L2.67697 20.0979C3.03585 18.8151 4.14212 17.9624 5.44705 17.9624Z" fill="#FCFCFD"/>
<path d="M28.8408 27.1069V7.024H33.0874V15.1986H40.6025V7.024H44.8491V27.1069H40.6025V18.8191H33.0874V27.1069H28.8408ZM55.4317 27.4463C50.85 27.4463 47.8886 24.3066 47.8886 19.5263C47.8886 14.746 50.85 11.6063 55.4037 11.6063C59.8458 11.6063 62.7234 14.7177 62.7234 19.8091V20.6577H52.2189C52.3027 23.062 53.5599 24.2217 55.5154 24.2217C56.9123 24.2217 57.8901 23.6277 58.3093 22.3831L62.5278 22.6377C61.7176 25.6643 59.0356 27.4463 55.4317 27.4463ZM58.4489 18.0554C58.3371 15.8491 57.1359 14.746 55.4037 14.746C53.6437 14.746 52.4424 15.9623 52.2189 18.0554H58.4489ZM69.4421 27.1069C67.0115 27.1069 65.5308 25.9471 65.5308 23.1469V7.024H69.7215V22.6943C69.7215 23.5994 70.1405 23.9389 70.9228 23.9389H71.9285V27.1069H69.4421ZM74.6979 27.1069V11.9457H78.8884V27.1069H74.6979ZM74.614 10.0789V6.68457H78.9443V10.0789H74.614ZM89.2909 27.4463C84.6812 27.4463 81.6919 24.3066 81.6919 19.5263C81.6919 14.746 84.6812 11.6063 89.2909 11.6063C93.258 11.6063 96.1635 13.8126 96.6105 17.5463L92.2802 17.7443C92.0009 15.8774 90.8833 14.8874 89.2909 14.8874C87.1956 14.8874 85.9943 16.5846 85.9943 19.5263C85.9943 22.468 87.1956 24.1934 89.2909 24.1934C90.9113 24.1934 92.0567 23.2317 92.2802 21.1669L96.6105 21.3366C96.1914 25.0703 93.3419 27.4463 89.2909 27.4463ZM105.852 27.4463C101.27 27.4463 98.2526 24.3349 98.2526 19.5263C98.2526 14.746 101.27 11.6063 105.852 11.6063C110.433 11.6063 113.451 14.746 113.451 19.5263C113.451 24.3349 110.433 27.4463 105.852 27.4463ZM105.852 24.1934C107.947 24.1934 109.12 22.468 109.12 19.5263C109.12 16.5846 107.947 14.8591 105.852 14.8591C103.756 14.8591 102.555 16.5846 102.555 19.5263C102.555 22.468 103.756 24.1934 105.852 24.1934ZM121.531 27.4463C117.76 27.4463 115.413 24.3914 115.413 19.5263C115.413 14.6894 117.816 11.6063 121.531 11.6063C123.683 11.6063 125.275 12.5397 126.057 14.0954V7.024H130.249V27.1069H126.225L126.141 24.8723C125.303 26.5129 123.599 27.4463 121.531 27.4463ZM122.928 24.1934C124.94 24.1934 126.057 22.5811 126.057 19.5263C126.057 16.4431 124.94 14.8591 122.928 14.8591C120.973 14.8591 119.716 16.6411 119.716 19.5263C119.716 22.3549 121.001 24.1934 122.928 24.1934ZM140.609 27.4463C136.027 27.4463 133.066 24.3066 133.066 19.5263C133.066 14.746 136.027 11.6063 140.581 11.6063C145.023 11.6063 147.9 14.7177 147.9 19.8091V20.6577H137.396C137.48 23.062 138.737 24.2217 140.693 24.2217C142.089 24.2217 143.067 23.6277 143.486 22.3831L147.705 22.6377C146.894 25.6643 144.212 27.4463 140.609 27.4463ZM143.626 18.0554C143.514 15.8491 142.312 14.746 140.581 14.746C138.821 14.746 137.619 15.9623 137.396 18.0554H143.626Z" fill="#FCFCFD"/>
</g>
</g>
<defs>
<clipPath id="clip0_210_1336">
<rect width="149" height="33" fill="white"/>
</clipPath>
</defs>
</svg>
