<svg width="123" height="17" viewBox="0 0 123 17" fill="none" xmlns="http://www.w3.org/2000/svg">
<path d="M30.0648 1.98571C30.1009 2.0122 30.1369 2.03869 30.1741 2.06598C30.2988 2.16006 30.4204 2.25644 30.5413 2.35415C30.5679 2.37562 30.5945 2.39709 30.6219 2.41922C31.3149 2.98306 31.8719 3.61153 32.3519 4.3192C32.3687 4.34375 32.3856 4.36829 32.403 4.39358C33.5344 6.05735 33.9049 8.20809 33.4477 10.0915C33.4398 10.1259 33.4319 10.1602 33.4237 10.1956C32.9612 12.1651 31.6486 13.9941 29.7665 15.1967C29.6861 15.2482 29.6064 15.3005 29.5268 15.3529C27.4926 16.6686 24.8866 17.1099 22.3937 16.8464C19.8877 16.5287 17.5164 15.388 15.9877 13.6337C14.8277 12.269 14.0173 10.6365 13.9966 8.9235C13.9961 8.89135 13.9957 8.85919 13.9952 8.82606C13.9867 8.08691 14.0082 7.37728 14.1985 6.65269C14.2072 6.61839 14.2159 6.58409 14.2248 6.54875C14.5882 5.14254 15.3995 3.87851 16.5261 2.81967C16.6172 2.73334 16.7049 2.64531 16.7923 2.55629C17.3334 2.02544 18.0276 1.61394 18.7249 1.24881C18.7528 1.23389 18.7807 1.21897 18.8094 1.2036C22.233 -0.615593 27.027 -0.267425 30.0648 1.98571ZM22.0036 2.7098C21.9547 2.71347 21.9058 2.71714 21.8553 2.72092C21.4567 2.75468 21.1107 2.81615 20.7737 3.00917C20.6397 3.00821 20.6397 3.00821 20.4879 2.99382C20.3433 2.98073 20.2045 2.96823 20.0591 2.96823C20.0008 3.03854 19.9429 3.10905 19.8873 3.18092C19.7915 3.28737 19.6652 3.34559 19.5349 3.41855C19.4177 3.54445 19.3842 3.65218 19.3533 3.80747C19.3213 3.9452 19.2875 4.01976 19.1627 4.11195C19.0108 4.19638 19.0108 4.19638 18.8858 4.23476C18.6421 4.32843 18.5325 4.59421 18.4095 4.78967C18.3619 4.86404 18.3124 4.9375 18.2617 5.01036C18.2347 5.04994 18.2078 5.08951 18.18 5.13029C18.1545 5.16686 18.129 5.20344 18.1028 5.24112C18.0437 5.34046 18.0437 5.34046 18.0979 5.43014C18.1162 5.45531 18.1344 5.48048 18.1532 5.50642C18.1532 5.54695 18.1532 5.58747 18.1532 5.62923C18.1548 5.6619 18.1565 5.69456 18.1582 5.72822C18.1672 5.98913 18.1295 6.16789 18.0102 6.40706C18.0102 6.62625 18.0214 6.86951 18.1532 7.06208C18.232 7.0906 18.3115 7.11779 18.3914 7.14396C18.5253 7.25898 18.5908 7.36281 18.6475 7.51496C18.7205 7.69319 18.8188 7.74391 19.0108 7.83991C19.1351 7.92426 19.2572 8.01074 19.3792 8.09754C19.486 8.17426 19.486 8.17426 19.6302 8.20836C19.6645 8.19553 19.6988 8.18271 19.7341 8.1695C19.9106 8.113 20.071 8.12627 20.2556 8.13416C20.5802 8.14225 20.7904 8.10071 21.0805 7.96848C21.2914 7.88779 21.503 7.86952 21.7267 7.92179C21.8013 7.99164 21.8467 8.06186 21.8992 8.14503C21.9615 8.21868 21.9615 8.21868 22.0797 8.22307C22.2082 8.22001 22.2082 8.22001 22.3316 8.20644C22.4414 8.20836 22.4414 8.20836 22.5266 8.26017C22.6199 8.37495 22.5956 8.48215 22.5843 8.61774C22.5686 8.65827 22.5529 8.6988 22.5367 8.74056C22.5348 8.83607 22.5346 8.93162 22.5367 9.02713C22.5052 9.02713 22.4738 9.02713 22.4414 9.02713C22.5041 9.22331 22.5955 9.34903 22.7451 9.5056C23.1354 9.93908 23.2641 10.4483 23.2514 10.9922C23.168 11.1252 23.168 11.1252 23.0608 11.2378C22.9312 11.4957 22.8642 11.744 22.9655 12.0156C23.042 12.1464 23.1218 12.2752 23.203 12.4039C23.3489 12.647 23.4074 12.8792 23.4414 13.15C23.4714 13.3735 23.5516 13.5399 23.6802 13.7351C23.9931 14.2284 23.9931 14.2284 23.9661 14.5538C23.9868 14.6545 23.9868 14.6545 24.0614 14.7176C24.3636 14.7793 24.6195 14.7257 24.919 14.6766C24.9617 14.6716 25.0045 14.6666 25.0485 14.6614C25.6726 14.5812 26.0263 14.134 26.3899 13.7279C26.5101 13.561 26.4956 13.395 26.4913 13.2029C26.5577 13.1851 26.5577 13.1851 26.6253 13.167C26.7819 13.1256 26.7819 13.1256 26.9202 13.0391C27.036 12.8039 26.9786 12.5301 26.8725 12.3022C26.9157 12.2727 26.959 12.2431 27.0035 12.2127C27.1035 12.1419 27.1701 12.0838 27.2477 11.9926C27.3653 11.8767 27.4705 11.8366 27.6349 11.7817C27.7834 11.6997 27.8417 11.6193 27.9207 11.4834C27.9398 11.3462 27.9302 11.2141 27.9178 11.0766C27.9158 11.0411 27.9139 11.0055 27.9119 10.9689C27.8955 10.7442 27.841 10.5811 27.7301 10.3781C27.7242 10.2348 27.7242 10.2348 27.7301 10.0915C27.7125 10.0231 27.7125 10.0231 27.6944 9.95336C27.6799 9.77267 27.736 9.67363 27.8297 9.51503C27.8799 9.43867 27.8799 9.43867 27.8731 9.35463C27.9132 9.34237 27.9132 9.34237 27.954 9.32985C28.1062 9.2506 28.1915 9.13663 28.293 9.01433C28.5438 8.72202 28.5438 8.72202 28.7129 8.63054C29.1058 8.41439 29.302 8.06571 29.4901 7.71198C29.5087 7.6773 29.5272 7.64263 29.5464 7.6069C29.6543 7.39512 29.7118 7.21093 29.7313 6.9802C29.5778 6.91426 29.431 6.97874 29.2727 7.01602C29.0124 7.07688 28.7611 7.11958 28.4925 7.14396C28.4733 7.09963 28.4733 7.09963 28.4538 7.0544C28.3468 6.83672 28.2123 6.69442 28.016 6.52988C27.9826 6.49357 27.9492 6.45726 27.9148 6.41986C27.8271 6.31734 27.8271 6.31734 27.6825 6.24331C27.6319 6.15903 27.6319 6.15903 27.5872 6.06164C27.5262 5.92588 27.5262 5.92588 27.4188 5.81681C27.3189 5.72413 27.3092 5.63426 27.2805 5.51153C27.2286 5.31702 27.1738 5.2049 27.0154 5.05609C26.9801 4.98707 26.9449 4.91797 26.9114 4.84827C26.8494 4.72282 26.7772 4.60201 26.7057 4.48039C26.6777 4.43264 26.6497 4.38488 26.6209 4.33567C26.5679 4.24551 26.5145 4.15552 26.4606 4.06573C26.3857 3.93231 26.344 3.8071 26.3007 3.66418C26.1548 3.6612 26.0239 3.66255 25.8807 3.68833C25.7098 3.70725 25.5938 3.68746 25.4282 3.64883C25.3783 3.63754 25.3284 3.62625 25.2769 3.61461C25.1572 3.58231 25.1572 3.58231 25.1096 3.54137C25.0143 3.5397 24.919 3.53963 24.8237 3.54137C24.8237 3.51435 24.8237 3.48733 24.8237 3.45949C24.5957 3.41562 24.5957 3.41562 24.374 3.45949C24.2658 3.5785 24.2946 3.681 24.2996 3.82794C24.229 3.81021 24.229 3.81021 24.157 3.79212C24.0954 3.77676 24.0337 3.76141 23.972 3.74606C23.941 3.73825 23.91 3.73044 23.878 3.72239C23.7104 3.67901 23.7104 3.67901 23.5372 3.66418C23.5333 3.63885 23.5294 3.61352 23.5253 3.58742C23.499 3.49703 23.499 3.49703 23.4152 3.45437C23.28 3.41267 23.1443 3.3852 23.0038 3.3597C22.9178 3.33668 22.9178 3.33668 22.8226 3.2548C22.7754 3.2548 22.7282 3.2548 22.6796 3.2548C22.6796 3.21427 22.6796 3.17374 22.6796 3.13198C22.7268 3.11847 22.774 3.10496 22.8226 3.09104C22.8137 3.04545 22.8049 2.99985 22.7957 2.95288C22.7749 2.80448 22.7749 2.80448 22.8226 2.7226C22.546 2.66651 22.2836 2.68862 22.0036 2.7098ZM29.3501 10.9922C29.3344 11.0597 29.3187 11.1273 29.3025 11.1969C29.2553 11.1969 29.2081 11.1969 29.1595 11.1969C29.1438 11.2644 29.1281 11.332 29.1119 11.4016C29.0805 11.4016 29.049 11.4016 29.0166 11.4016C28.9694 11.4624 28.9694 11.4624 28.9213 11.5244C28.8263 11.5691 28.7292 11.6043 28.6295 11.6406C28.5157 11.7011 28.4869 11.743 28.4448 11.8519C28.4405 11.9672 28.4405 11.9672 28.4508 12.0898C28.4554 12.2533 28.4579 12.3538 28.3436 12.4864C28.21 12.7006 28.27 12.8936 28.3496 13.121C28.4417 13.2168 28.4417 13.2168 28.6057 13.2208C28.7812 13.2182 28.7812 13.2182 28.877 13.1171C28.9789 12.9853 29.0324 12.8658 29.0884 12.7153C29.0985 12.6887 29.1086 12.6621 29.119 12.6347C29.1509 12.5504 29.182 12.466 29.2131 12.3815C29.2447 12.2969 29.2764 12.2124 29.3083 12.1279C29.3371 12.0514 29.3655 11.9747 29.3939 11.8981C29.4454 11.77 29.4454 11.77 29.499 11.6807C29.5949 11.5096 29.5514 11.3147 29.499 11.138C29.4582 11.0277 29.4582 11.0277 29.3501 10.9922Z" fill="#060606"/>
<path d="M59.3975 3.36484C59.4445 3.36495 59.4445 3.36495 59.4924 3.36507C60.0041 3.36711 60.4909 3.39457 60.9877 3.50045C61.0213 3.50747 61.0548 3.5145 61.0893 3.52174C62.2541 3.7738 63.2159 4.27223 64.1026 4.96144C64.1265 4.97993 64.1503 4.99843 64.1749 5.01748C64.3186 5.13117 64.4431 5.25009 64.5612 5.38362C64.7351 5.32015 64.8508 5.22879 64.9871 5.11752C65.9753 4.33113 67.1485 3.75121 68.4683 3.50045C68.5029 3.49375 68.5376 3.48704 68.5733 3.48014C69.683 3.27654 70.9462 3.29448 72.0417 3.54139C72.0778 3.54929 72.1139 3.55719 72.151 3.56533C73.0464 3.76976 73.9179 4.1639 74.6147 4.68767C74.6385 4.70511 74.6623 4.72255 74.6869 4.74052C75.7164 5.49612 76.3636 6.4387 76.6575 7.57639C76.6666 7.61159 76.6757 7.64679 76.6851 7.68305C76.8353 8.31828 76.8682 8.95979 76.8649 9.60599C76.8648 9.68072 76.8649 9.75545 76.8649 9.83018C76.8649 10.0303 76.8644 10.2305 76.8637 10.4307C76.8631 10.6408 76.8631 10.851 76.863 11.0612C76.8627 11.458 76.8619 11.8548 76.8609 12.2516C76.8598 12.7039 76.8593 13.1562 76.8588 13.6084C76.8579 14.5376 76.8561 15.4669 76.8541 16.3961C75.8635 16.3961 74.8729 16.3961 73.8523 16.3961C73.8514 16.1806 73.8504 15.9652 73.8495 15.7432C73.8463 15.0295 73.8426 14.3158 73.8386 13.602C73.8362 13.1695 73.834 12.737 73.8322 12.3045C73.8306 11.9272 73.8287 11.5499 73.8265 11.1726C73.8253 10.9731 73.8242 10.7736 73.8236 10.5742C73.823 10.3857 73.8219 10.1973 73.8205 10.0089C73.8201 9.94041 73.8198 9.87188 73.8197 9.80335C73.8178 8.69031 73.702 7.57922 72.7564 6.73459C72.013 6.12221 71.0348 5.85188 70.0171 5.86625C68.7193 5.90581 67.5572 6.34208 66.5584 7.03965C66.4972 7.08211 66.4354 7.12389 66.373 7.16498C66.0153 7.38828 66.0153 7.38828 65.8168 7.71136C65.8279 7.84152 65.8586 7.95894 65.8953 8.08556C65.9127 8.19049 65.9286 8.29506 65.943 8.40027C65.9547 8.4795 65.9547 8.4795 65.9666 8.56032C65.99 8.72821 66.0058 8.89616 66.0171 9.06496C66.0191 9.09489 66.0211 9.12483 66.0232 9.15567C66.0438 9.4886 66.0446 9.8211 66.0437 10.1544C66.0437 10.2231 66.0437 10.2917 66.0437 10.3604C66.0437 10.5444 66.0434 10.7284 66.0431 10.9124C66.0428 11.1056 66.0428 11.2988 66.0427 11.492C66.0426 11.8568 66.0422 12.2215 66.0417 12.5863C66.0412 13.002 66.0409 13.4178 66.0407 13.8335C66.0402 14.6877 66.0393 15.5419 66.0383 16.3961C65.032 16.3961 64.0257 16.3961 62.9889 16.3961C62.988 16.1738 62.987 15.9515 62.986 15.7225C62.9829 14.9869 62.9792 14.2512 62.9752 13.5156C62.9728 13.0698 62.9706 12.6239 62.9688 12.178C62.9672 11.7891 62.9653 11.4003 62.963 11.0114C62.9618 10.8057 62.9608 10.6001 62.9602 10.3944C62.9595 10.2003 62.9585 10.0062 62.9571 9.81213C62.9567 9.74138 62.9564 9.67062 62.9563 9.59986C62.9546 8.56288 62.8058 7.54016 61.9312 6.75794C61.1357 6.1307 60.1128 5.83415 59.0385 5.86948C57.6198 5.94638 56.4017 6.58624 55.4131 7.43054C55.3796 7.45913 55.3461 7.48771 55.3116 7.51716C55.193 7.67436 55.1958 7.81113 55.1978 7.99245C55.1974 8.0284 55.1971 8.06435 55.1967 8.10139C55.1957 8.22183 55.1961 8.34225 55.1965 8.46269C55.1961 8.54904 55.1956 8.63538 55.195 8.72172C55.1937 8.95617 55.1935 9.19061 55.1936 9.42506C55.1934 9.67006 55.1922 9.91505 55.1911 10.16C55.1892 10.624 55.1882 11.0879 55.1876 11.5519C55.1868 12.0801 55.185 12.6083 55.1831 13.1365C55.1791 14.223 55.1767 15.3095 55.1749 16.3961C54.1686 16.3961 53.1623 16.3961 52.1255 16.3961C52.1255 12.181 52.1255 7.96602 52.1255 3.62326C53.1003 3.62326 54.0752 3.62326 55.0796 3.62326C55.0953 3.98803 55.111 4.35279 55.1272 4.7286C55.2845 4.62053 55.4417 4.51245 55.6037 4.4011C56.7191 3.72775 58.0363 3.35968 59.3975 3.36484Z" fill="#060606"/>
<path d="M9.34317 0.0517327C9.4039 0.0516201 9.46464 0.0515076 9.52721 0.0513916C9.59465 0.0516814 9.66208 0.051979 9.72952 0.0522836C9.80042 0.0523067 9.87132 0.0522938 9.94223 0.0522474C10.1349 0.0522239 10.3275 0.0527059 10.5201 0.0532769C10.7214 0.0537881 10.9227 0.0538368 11.1239 0.053934C11.5051 0.0541887 11.8863 0.0548608 12.2675 0.055682C12.7014 0.0565966 13.1354 0.0570473 13.5693 0.0574584C14.462 0.0583147 15.3548 0.0597552 16.2475 0.0615788C16.1312 0.163302 16.026 0.249184 15.8825 0.321122C15.8491 0.338161 15.8157 0.3552 15.7812 0.372755C15.7454 0.39081 15.7096 0.408865 15.6727 0.427467C13.9428 1.31862 12.3235 2.41363 10.8316 3.57749C10.7593 3.63387 10.6867 3.68996 10.6138 3.74572C10.0693 4.16245 9.53965 4.59347 9.02307 5.03561C8.99266 5.06155 8.96224 5.08749 8.93091 5.11422C8.75204 5.26841 8.58354 5.42797 8.41792 5.59267C8.30173 5.70552 8.17777 5.81065 8.05227 5.91578C7.8671 6.07294 7.68892 6.23199 7.52015 6.40241C7.43054 6.49123 7.33809 6.57753 7.24501 6.66367C6.97763 6.91131 6.72634 7.1672 6.47993 7.43051C6.42688 7.48609 6.37377 7.54164 6.32061 7.59714C6.26453 7.65588 6.20844 7.71463 6.15236 7.77337C6.11234 7.81503 6.11234 7.81503 6.07152 7.85752C5.76989 8.16838 5.76989 8.16838 5.6919 8.55536C5.77259 8.8799 6.07771 9.1465 6.3329 9.3834C6.43854 9.48335 6.53658 9.58697 6.63478 9.69236C6.82187 9.89065 7.01889 10.0788 7.22204 10.2648C7.34684 10.3792 7.46904 10.495 7.58861 10.6135C8.13446 11.1504 8.72081 11.655 9.30798 12.1583C9.43222 12.2648 9.5562 12.3716 9.68016 12.4783C9.76033 12.5472 9.84052 12.616 9.92072 12.6849C9.97537 12.732 9.97537 12.732 10.0311 12.78C10.2277 12.9482 10.4283 13.1098 10.6388 13.2652C10.7528 13.3496 10.863 13.4375 10.9736 13.5252C11.1875 13.6928 11.4072 13.8519 11.6325 14.008C11.7514 14.0914 11.8684 14.1765 11.9847 14.2625C12.3427 14.5266 12.7141 14.7738 13.0914 15.0171C13.1616 15.0625 13.2318 15.108 13.3019 15.1536C14.1667 15.7168 15.0695 16.2477 16.0079 16.7165C16.0893 16.7577 16.1686 16.8017 16.2475 16.8464C16.2475 16.8734 16.2475 16.9004 16.2475 16.9282C15.3242 16.9417 14.4011 16.9518 13.4777 16.9579C13.0489 16.9609 12.6202 16.9649 12.1914 16.9715C11.8173 16.9772 11.4433 16.9809 11.0691 16.9822C10.8713 16.9829 10.6737 16.9846 10.4759 16.9888C9.00391 17.019 9.00391 17.019 8.44624 16.5766C8.38897 16.5274 8.33251 16.4774 8.27702 16.4267C8.14569 16.3118 7.99673 16.2184 7.84679 16.1223C7.55364 15.9253 7.26919 15.72 6.98683 15.5118C6.90831 15.4541 6.8293 15.397 6.75018 15.34C6.02677 14.8166 5.3563 14.2472 4.68723 13.6736C4.65584 13.6468 4.62445 13.6199 4.59211 13.5922C4.27378 13.3196 3.95948 13.0474 3.66878 12.7525C3.59161 12.6798 3.51421 12.6073 3.43651 12.535C3.24503 12.3544 3.06231 12.1697 2.88392 11.9795C2.79445 11.8841 2.70345 11.7899 2.61181 11.6961C2.19626 11.2695 1.80646 10.8302 1.4294 10.3781C1.38736 10.3278 1.38736 10.3278 1.34448 10.2765C1.03399 9.9037 0.732653 9.52672 0.446686 9.13969C0.423585 9.1085 0.400484 9.07731 0.376682 9.04518C0.333618 8.9861 0.291462 8.92653 0.250354 8.86644C0.192248 8.78065 0.192248 8.78065 0.121699 8.7026C0.0538278 8.61585 0.0173613 8.55776 0 8.45397C0.0683387 8.28193 0.183626 8.14195 0.303747 7.99341C0.337009 7.95023 0.370272 7.90704 0.404542 7.86255C0.506376 7.73122 0.610288 7.60127 0.714698 7.47145C0.771382 7.39946 0.828027 7.32744 0.884625 7.2554C1.39714 6.60997 1.95512 5.99195 2.52527 5.38358C2.56132 5.34501 2.59737 5.30643 2.63452 5.26669C3.11659 4.75684 3.62265 4.26624 4.14525 3.78698C4.19054 3.7453 4.19054 3.7453 4.23675 3.70277C5.21996 2.79803 5.21996 2.79803 5.67645 2.4624C5.76545 2.39491 5.84883 2.32453 5.932 2.25179C6.10653 2.09982 6.29168 1.96116 6.47993 1.82193C6.53208 1.78273 6.58419 1.7435 6.63627 1.70424C8.83413 0.0510068 8.83413 0.0510067 9.34317 0.0517327Z" fill="#060606"/>
<path d="M31.3521 0.0615492C32.2769 0.0500356 33.2018 0.041392 34.1267 0.0360958C34.5563 0.0335705 34.9858 0.0301324 35.4153 0.0244886C35.79 0.0195676 36.1646 0.016417 36.5394 0.0153271C36.7375 0.0146906 36.9355 0.0132125 37.1337 0.00960802C38.6105 -0.016222 38.6105 -0.0162221 39.0919 0.36048C39.141 0.402644 39.1892 0.445531 39.2365 0.489173C39.3624 0.599602 39.5078 0.688176 39.6515 0.780532C39.9462 0.979333 40.2327 1.18612 40.517 1.39577C40.5968 1.45444 40.6771 1.51268 40.7574 1.57084C41.2353 1.91795 41.7019 2.27716 42.1412 2.66034C42.2564 2.76025 42.3753 2.85372 42.4997 2.94515C42.6981 3.09234 42.8753 3.25263 43.0523 3.41851C43.2526 3.60515 43.4543 3.78941 43.6651 3.96742C43.809 4.0924 43.9403 4.22689 44.0737 4.36009C44.1188 4.40441 44.1639 4.44871 44.209 4.49298C44.8118 5.08536 45.3911 5.68998 45.9319 6.32514C45.9574 6.35497 45.9829 6.3848 46.0092 6.41553C46.339 6.802 46.6636 7.19108 46.966 7.59389C47.0103 7.65286 47.055 7.71165 47.0998 7.77032C47.175 7.86893 47.2489 7.96816 47.3226 8.06758C47.3461 8.0983 47.3697 8.12901 47.394 8.16066C47.4153 8.18994 47.4367 8.21923 47.4586 8.24941C47.4778 8.27509 47.497 8.30076 47.5167 8.32722C47.5675 8.45118 47.5429 8.53265 47.5042 8.65863C47.4415 8.76256 47.4415 8.76256 47.3617 8.86556C47.3176 8.92307 47.3176 8.92307 47.2726 8.98173C47.2409 9.02203 47.2093 9.06232 47.1767 9.10384C47.1442 9.14574 47.1118 9.18765 47.0784 9.23082C46.9827 9.35427 46.8862 9.47729 46.7895 9.60022C46.7645 9.63231 46.7395 9.6644 46.7137 9.69747C45.8396 10.8175 44.848 11.8829 43.781 12.8715C43.6963 12.9501 43.6123 13.029 43.5287 13.1085C43.2063 13.4144 42.8724 13.7091 42.5322 14.0004C42.4442 14.0758 42.3565 14.1514 42.2688 14.227C41.989 14.4675 41.7073 14.702 41.4055 14.9222C41.3209 14.9885 41.2365 15.055 41.1524 15.1218C40.9383 15.2895 40.7185 15.4487 40.4929 15.6049C40.3763 15.6867 40.2621 15.7703 40.1483 15.855C39.7451 16.1541 39.3182 16.4252 38.8896 16.6966C38.7816 16.7642 38.7816 16.7642 38.6781 16.8493C38.5194 16.9446 38.4369 16.9485 38.2449 16.9479C38.1536 16.9482 38.1536 16.9482 38.0605 16.9486C37.9934 16.948 37.9263 16.9474 37.8592 16.9468C37.7883 16.9468 37.7174 16.9468 37.6464 16.9469C37.4542 16.9469 37.262 16.946 37.0697 16.9448C36.8687 16.9438 36.6677 16.9437 36.4667 16.9435C36.0862 16.943 35.7057 16.9416 35.3252 16.94C34.8919 16.9382 34.4587 16.9373 34.0254 16.9365C33.1343 16.9347 32.2432 16.9319 31.3521 16.9282C31.3521 16.9012 31.3521 16.8742 31.3521 16.8463C31.4194 16.8022 31.4194 16.8022 31.5145 16.7542C31.567 16.7273 31.567 16.7273 31.6206 16.6999C31.6587 16.6807 31.6969 16.6614 31.7362 16.6416C31.8159 16.6006 31.8955 16.5595 31.975 16.5183C32.0348 16.4874 32.0348 16.4874 32.0959 16.4558C32.3783 16.3075 32.6515 16.1474 32.9244 15.9866C32.9599 15.9658 32.9953 15.945 33.0319 15.9235C33.9041 15.41 34.7434 14.8615 35.559 14.2836C35.6341 14.2306 35.7096 14.1782 35.7852 14.1258C36.0544 13.9392 36.3127 13.7449 36.5673 13.5437C36.668 13.4645 36.7698 13.3869 36.8731 13.3103C37.4278 12.8944 37.9509 12.4521 38.4707 12.0044C38.589 11.9025 38.7076 11.8008 38.8262 11.6991C38.9027 11.6334 38.9791 11.5677 39.0555 11.5019C39.1079 11.4571 39.1079 11.4571 39.1613 11.4113C39.3532 11.2457 39.5367 11.0761 39.7143 10.8991C39.7936 10.8203 39.8755 10.7442 39.9593 10.6689C39.9883 10.6428 40.0173 10.6166 40.0471 10.5896C40.0767 10.5628 40.1064 10.5361 40.1369 10.5085C40.3758 10.2911 40.6052 10.0709 40.822 9.83673C40.9271 9.72509 41.0355 9.61673 41.1453 9.50849C41.6829 9.02541 41.6829 9.02541 41.8946 8.41844C41.8485 8.10029 41.4918 7.82731 41.2625 7.59423C41.2194 7.54995 41.1763 7.50565 41.1332 7.46134C40.896 7.21824 40.6546 6.97921 40.4062 6.74444C40.322 6.66443 40.2396 6.58344 40.1577 6.50169C39.7564 6.10671 39.3337 5.72866 38.8998 5.36021C38.7382 5.22248 38.5864 5.08048 38.4387 4.93163C38.1782 4.67852 37.8922 4.44755 37.5936 4.22816C37.486 4.14587 37.3852 4.05926 37.284 3.97118C37.0931 3.80542 36.8945 3.65202 36.6885 3.50038C36.637 3.46178 36.5856 3.42313 36.5342 3.38444C35.861 2.87861 35.1727 2.3911 34.4575 1.92975C34.3885 1.88523 34.3196 1.84057 34.2509 1.79578C33.3902 1.23538 32.487 0.724552 31.5746 0.228711C31.4997 0.187659 31.4257 0.145246 31.3521 0.102488C31.3521 0.088978 31.3521 0.0754683 31.3521 0.0615492Z" fill="#060606"/>
<path d="M91.9457 4.62621C92.0294 4.68729 92.1128 4.74869 92.1958 4.81043C92.2331 4.83693 92.2703 4.86342 92.3086 4.89071C92.5947 5.09906 92.8241 5.33422 93.0535 5.58827C93.0883 5.62526 93.1231 5.66225 93.159 5.70037C94.4676 7.12901 94.7211 8.81405 94.7211 10.5828C90.9632 10.5828 87.2053 10.5828 83.3336 10.5828C83.5121 11.452 83.7518 12.2046 84.4295 12.8753C84.4606 12.9079 84.4917 12.9405 84.5238 12.9741C85.265 13.7235 86.3498 14.1798 87.4788 14.3082C88.8198 14.3907 90.1071 14.2028 91.1953 13.4894C91.2601 13.4472 91.2601 13.4472 91.3263 13.4042C91.6743 13.1684 91.9832 12.9026 92.2911 12.6297C92.558 12.7667 92.7602 12.9429 92.9761 13.1337C93.2035 13.3339 93.4327 13.527 93.6797 13.7093C93.8103 13.8077 93.9324 13.9126 94.0541 14.019C94.0773 14.0392 94.1006 14.0594 94.1246 14.0802C94.1806 14.1288 94.2365 14.1775 94.2923 14.2263C93.8273 15.1704 92.252 15.8292 91.229 16.1888C89.2033 16.8676 86.8119 16.8243 84.816 16.1018C83.9192 15.7624 83.1596 15.2795 82.476 14.6766C82.45 14.6566 82.424 14.6366 82.3972 14.616C81.1201 13.5994 80.4513 11.9412 80.3715 10.4764C80.3055 8.60589 80.7979 6.71013 82.3284 5.31229C82.3932 5.254 82.4584 5.19597 82.5236 5.13794C82.5612 5.10306 82.5988 5.06818 82.6375 5.03224C83.6285 4.13706 85.0215 3.60347 86.4306 3.41852C86.4847 3.41108 86.5388 3.40364 86.5946 3.39598C88.4909 3.20125 90.4467 3.58477 91.9457 4.62621ZM84.62 6.77548C84.5847 6.80588 84.5493 6.83628 84.5128 6.86759C84.1384 7.20946 83.5718 7.86521 83.5718 8.37208C86.2133 8.37208 88.8549 8.37208 91.5764 8.37208C91.3416 7.76685 91.112 7.28585 90.6235 6.81642C90.5883 6.78233 90.5531 6.74824 90.5169 6.71311C90.0858 6.31908 89.5461 6.02232 88.9559 5.8339C88.906 5.81785 88.8561 5.80181 88.8048 5.78528C87.3047 5.37284 85.7015 5.84628 84.62 6.77548Z" fill="#060606"/>
<path d="M103.375 3.36473C103.41 3.3648 103.446 3.36488 103.482 3.36495C104.051 3.36696 104.6 3.39467 105.156 3.50033C105.211 3.51022 105.211 3.51022 105.267 3.5203C106.362 3.7228 107.403 4.13863 108.253 4.76943C108.148 4.95895 108.01 5.12632 107.872 5.29907C107.844 5.33379 107.816 5.36851 107.788 5.40428C107.59 5.65079 107.383 5.88933 107.168 6.12488C107.014 6.29631 106.87 6.4736 106.728 6.6526C106.525 6.59141 106.357 6.4995 106.18 6.39673C105.141 5.80973 103.919 5.5552 102.683 5.7406C102.064 5.85505 101.491 6.09114 101.12 6.54785C100.927 6.8364 100.871 7.09802 100.915 7.43043C101.044 7.79292 101.286 7.96621 101.658 8.14477C102.302 8.4224 103.02 8.56673 103.713 8.72307C105.023 9.01888 106.381 9.38264 107.443 10.1324C107.486 10.1621 107.529 10.1918 107.574 10.2224C108.284 10.7392 108.762 11.4655 108.872 12.2612C108.954 13.205 108.773 14.1881 108.031 14.9292C107.903 15.0531 107.768 15.1718 107.633 15.2906C107.606 15.3171 107.579 15.3435 107.551 15.3707C106.719 16.1575 105.255 16.5609 104.06 16.6416C101.771 16.7154 99.2664 16.3526 97.4847 15.0041C97.4356 14.9505 97.3876 14.896 97.3418 14.8403C97.7483 14.3377 98.1552 13.8353 98.5643 13.3342C98.6031 13.2865 98.6031 13.2865 98.6428 13.2379C98.6654 13.2103 98.688 13.1826 98.7112 13.1541C98.7639 13.089 98.8153 13.0231 98.8665 12.9571C99.0373 13.0103 99.1707 13.0738 99.3162 13.1669C100.651 13.9842 102.285 14.4672 103.936 14.2963C104.54 14.2064 105.157 13.9528 105.537 13.5303C105.788 13.1785 105.839 12.8159 105.755 12.4078C105.616 12.0412 105.278 11.8129 104.895 11.6369C104.163 11.3246 103.359 11.1741 102.572 10.9994C101.012 10.6519 99.2857 10.2054 98.3424 8.98609C97.7727 8.13937 97.6896 7.22328 97.9612 6.28415C98.2805 5.30318 99.0212 4.54875 100.046 4.04533C101.087 3.55241 102.192 3.35953 103.375 3.36473Z" fill="#060606"/>
<path d="M114.352 0.143433C115.342 0.143433 116.333 0.143433 117.353 0.143433C117.353 1.29176 117.353 2.44008 117.353 3.6232C118.91 3.6232 120.467 3.6232 122.071 3.6232C122.071 4.39326 122.071 5.16331 122.071 5.9567C120.514 5.9567 118.957 5.9567 117.353 5.9567C117.359 7.06124 117.359 7.06124 117.366 8.16578C117.369 8.61659 117.371 9.06741 117.374 9.51823C117.375 9.84665 117.377 10.1751 117.379 10.5035C117.381 10.6771 117.382 10.8508 117.382 11.0244C117.383 11.1884 117.384 11.3524 117.385 11.5163C117.386 11.576 117.386 11.6357 117.386 11.6953C117.381 12.7099 117.381 12.7099 117.904 13.5866C118.517 14.0622 119.369 14.1754 120.165 14.1444C120.426 14.126 120.687 14.1008 120.947 14.0747C121.131 14.0565 121.315 14.0391 121.499 14.0216C121.557 14.2385 121.616 14.4553 121.674 14.6722C121.694 14.7458 121.714 14.8193 121.734 14.8928C121.799 15.1345 121.863 15.3763 121.928 15.6182C121.935 15.6476 121.943 15.677 121.951 15.7073C121.972 15.7862 121.993 15.8651 122.013 15.9441C122.024 15.9874 122.035 16.0307 122.047 16.0753C122.069 16.185 122.075 16.285 122.071 16.396C120.837 16.6899 119.418 16.7923 118.163 16.5188C118.132 16.512 118.1 16.5052 118.067 16.4982C116.857 16.2303 115.709 15.5823 115.055 14.6531C114.497 13.8134 114.344 12.8921 114.346 11.9381C114.346 11.8727 114.346 11.8073 114.346 11.7419C114.346 11.5653 114.347 11.3888 114.347 11.2122C114.347 11.0273 114.347 10.8424 114.347 10.6575C114.347 10.3078 114.348 9.95811 114.348 9.60841C114.349 9.13556 114.349 8.66272 114.349 8.18987C114.35 7.44548 114.351 6.70109 114.352 5.9567C113.094 5.9567 111.836 5.9567 110.54 5.9567C110.54 5.18665 110.54 4.41659 110.54 3.6232C111.798 3.6232 113.056 3.6232 114.352 3.6232C114.352 2.47488 114.352 1.32656 114.352 0.143433Z" fill="#060606"/>
</svg>
